# xmcd
#
# Track frame offsets: 
#        150
#        10155
#        19525
#        34278
#        47225
#        58382
#        74380
#        86423
#        95873
#        110934
#        121189
#        131751
#        141917
#        151914
#        164019
#        180042
#
# Disc length: 2541 seconds
#
# Revision: 2
# Processed by: cddbd v1.5.2PL0 Copyright (c) Steve Scherf et al.
# Submitted via: ExactAudioCopy v1.0b3
#
DISCID=e109eb10
DTITLE=Verschiedene - The Country Club Collection King of the Road
DYEAR=2005
DGENRE=Country
TTITLE0=Roger Miller - Engine Engine
TTITLE1=Merle Travis - 16 Tons
TTITLE2=Frankie Lane - Jezebel
TTITLE3=Merle Haggard - Kentucky Gambler
TTITLE4=Stoney Cooper and Wilma Lee - Big Midnight Special
TTITLE5=Lynn Anderson - The Devil went down to Georgia
TTITLE6=Johnny Dollar - Big Big Rolling Man
TTITLE7=George Jones - The Race is on
TTITLE8=Earl Thomas Conley - The Night they drove Old Dixie Down
TTITLE9=Dave Dudley - Six Days on the Road
TTITLE10=Ferlin Husky - Wings of a Dove
TTITLE11=Johnny Russell - Jambalaya
TTITLE12=Jack Reno - Hitchin a Ride
TTITLE13=Moe Bandy - San Antonio Rose
TTITLE14=Johnny Cash - A Boy named Sue
TTITLE15=Charley Pride - Oklahoma Morning
EXTD=
EXTT0=
EXTT1=
EXTT2=
EXTT3=
EXTT4=
EXTT5=
EXTT6=
EXTT7=
EXTT8=
EXTT9=
EXTT10=
EXTT11=
EXTT12=
EXTT13=
EXTT14=
EXTT15=
PLAYORDER=
